<svg xmlns="http://www.w3.org/2000/svg" x="0" y="0" width="300" height="300"
     viewBox="1000 220 80 80">
    <path id="MA"
          fill="#D3D3D3" d="M1074,273.9l2.2-0.7l0.5-1.7l1,0.1l1,2.3l-1.3,0.5l-3.9,0.1L1074,273.9z M1064.6,274.7l2.3-2.6h1.6   l1.8,1.5l-2.4,1l-2.2,1L1064.6,274.7z M1029.8,252.7l17.5-4.2l2.3-0.6l2.1-3.2l3.7-1.7l2.9,4.4l-2.4,5.2l-0.3,1.5l1.9,2.6l1.1-0.8   h1.8l2.3,2.6l3.9,6l3.6,0.5l2.3-1l1.8-1.8l-0.8-2.7l-2.1-1.6l-1.5,0.8l-1-1.3l0.5-0.5l2.1-0.2l1.8,0.8l1.9,2.4l1,2.9l0.3,2.4   l-4.2,1.5l-3.9,1.9l-3.9,4.5l-1.9,1.5v-1l2.4-1.5l0.5-1.8l-0.8-3.1l-2.9,1.5l-0.8,1.5l0.5,2.3l-2.1,1l-2.7-4.5l-3.4-4.4l-2.1-1.8   l-6.5,1.9l-5.1,1.1l-21.8,4.8l-0.4-4.9l0.6-10.6l5.2-0.9L1029.8,252.7z"/>

</svg>
