<svg xmlns="http://www.w3.org/2000/svg" x="0" y="0" width="300" height="300"
     viewBox="650 320 140 140">
    <path id="MO"
          fill="#D3D3D3" d="M729.8,349.5l-2.5-3.1l-1.1-2.3l-7.8,0.7l-9.8,0.5l-25.4,0.9l-13.5,0.2l-7.9,0.1l-2.3,0.1l1.3,2.5   l-0.2,2.3l2.5,3.9l3.1,4.1l3.1,2.7l2.3,0.2l1.4,0.9v3l-1.8,1.6l-0.5,2.3l2.1,3.4l2.5,3l2.5,1.8l1.4,11.7l-0.7,35.3l0.2,4.7l0.5,5.4   l23.4-0.1l23.2-0.7l20.8-0.8l11.7-0.2l2.2,3.4l-0.7,3.3l-3.1,2.4l-0.6,1.8l5.4,0.5l3.9-0.7l1.7-5.5l0.7-5.9l2.3-2l1.7-1.5l2.1-1   l0.1-2.9l0.6-1.7l-1-1.7l-2.7,0.1l-2.2-2.6l-1.4-4.2l0.8-2.5l-1.9-3.4l-1.8-4.6l-4.8-0.8l-7-5.6l-1.7-4.1l0.8-3.2l2.1-6.1l0.5-2.9   l-1.9-1l-6.9-0.8l-1-1.7l-0.1-4.2l-5.5-3.4l-7-7.8l-2.3-7.3l-0.2-4.2L729.8,349.5z"/>
</svg>
