<svg xmlns="http://www.w3.org/2000/svg" x="0" y="0" width="300" height="300"
     viewBox="700 450 120 120">
    <path id="MS"
          fill="#D3D3D3" d="M798.6,567l-0.3,1.3h-5.2l-1.5-0.8l-2.1-0.3l-6.8,1.9l-1.8-0.8l-2.6,4.2l-1.1,0.8l-1.1-2.5   l-1.1-3.9l-3.4-3.2l1.1-7.5l-0.7-0.9l-1.8,0.2l-8.2,0.7l-24.2,0.7l-0.5-1.6l0.7-8l3.4-6.2l5.3-9.1l-0.9-2.1h1.1l0.7-3.2l-2.3-1.8   l0.2-1.8l-2.1-4.6l-0.3-5.3l1.4-2.7l-0.4-4.3l-1.4-3l1.4-1.4l-1.4-2.1l0.5-1.8l0.9-6.2l3-2.7l-0.7-2.1l3.7-5.3l2.7-0.9v-2.5   l-0.7-1.4l2.7-5.3l2.7-1.1l0.1-3.4l8.7-0.1l24.1-1.9l4.6-0.2l0,6.4l0.2,16.7l-0.8,31l-0.2,14.1l2.7,18.8L798.6,567z"/>
</svg>
