<svg xmlns="http://www.w3.org/2000/svg" x="0" y="0" width="300" height="300"
     viewBox="862 391 150 100">
    <path id="NC"
          fill="#D3D3D3" d="M1006.1,398.5l1.7,4.7l3.6,6.5l2.4,2.4l0.6,2.3l-2.4,0.2l0.8,0.6l-0.3,4.2l-2.6,1.3l-0.6,2.1   l-1.3,2.9l-3.7,1.6l-2.4-0.3l-1.5-0.2l-1.6-1.3l0.3,1.3v1h1.9l0.8,1.3l-1.9,6.3h4.2l0.6,1.6l2.3-2.3l1.3-0.5l-1.9,3.6l-3.1,4.8   h-1.3l-1.1-0.5l-2.7,0.6l-5.2,2.4l-6.5,5.3l-3.4,4.7l-1.9,6.5l-0.5,2.4l-4.7,0.5l-5.5,1.3l-9.9-8.2l-12.6-7.6l-2.9-0.8l-12.6,1.5   l-4.3,0.8l-1.6-3.2l-3-2.1l-16.5,0.5l-7.3,0.8l-9.1,4.5l-6.1,2.6l-1.6,0.3l-5.8,1l-7,0.8l-6.8,0.5l0.5-4.1l1.8-1.5l2.7-0.6l0.6-3.7   l4.2-2.7l3.9-1.5l4.2-3.6l4.4-2.1l0.6-3.1l3.9-3.9l0.6-0.2c0,0,0,1.1,0.8,1.1c0.8,0,1.9,0.3,1.9,0.3l2.3-3.6l2.1-0.6l2.3,0.3   l1.6-3.6l2.9-2.6l0.5-2.1v-4l4.5,0.7l7.1-1.3l15.8-1.9l17.1-2.6l19.9-4l19.7-4.2l11.4-2.8L1006.1,398.5z M1010,431.5l2.6-2.5   l3.2-2.6l1.5-0.6l0.2-2l-0.6-6.1l-1.5-2.3l-0.6-1.9l0.7-0.2l2.7,5.5l0.4,4.4l-0.2,3.4l-3.4,1.5l-2.8,2.4l-1.1,1.2L1010,431.5z"/>

</svg>
