<svg xmlns="http://www.w3.org/2000/svg" x="0" y="0" width="300" height="300"
     viewBox="820 290 100 100">
    <path id="OH"
          fill="#D3D3D3" d="M905.4,295l-6.1,4.1l-3.9,2.3l-3.4,3.7l-4,3.9l-3.2,0.8l-2.9,0.5l-5.5,2.6l-2.1,0.2l-3.4-3.1   l-5.2,0.6l-2.6-1.5l-2.4-1.4l-4.9,0.7l-10.2,1.6l-7.8,1.2l1.3,14.6l1.8,13.7l2.6,23.4l0.6,4.8l4.1-0.1l2.4-0.8l3.4,1.5l2.1,4.4   l5.1,0l1.9,2.1l1.8-0.1l2.5-1.3l2.5,0.4l2,1.5l1.7-2.1l2.3-1.3l2.1-0.7l0.6,2.7l1.8,1l3.5,2.3l2.2-0.1l1.1-1.1l-0.1-1.4l1.6-1.5   l0.2-5l1-3.9l1.5-1.4l1.5,0.9l0.8,1.2l1.2-0.2l-0.4-2.4l-0.6-0.6v-2.4l1-1.3l2.3-3.4l1.3-1.5l2.1,0.5l2.3-1.6l3.1-3.4l2.3-3.9   l0.2-5.4l0.5-5v-4.7l-1.1-3.1l1-1.5l0.9-1l-1.4-9.8L905.4,295z"/>

</svg>
