<svg xmlns="http://www.w3.org/2000/svg" x="0" y="0" width="300" height="300"
     viewBox="880 430 100 100">
    <path id="SC"
           fill="#D3D3D3" d="M935.2,512.9l-1.8,1l-2.6-1.3l-0.6-2.1l-1.3-3.6l-2.3-2.1l-2.6-0.6l-1.6-4.8l-2.7-6l-4.2-1.9   l-2.1-1.9l-1.3-2.6L910,485l-2.3-1.3l-2.3-2.9l-3.1-2.3l-4.5-1.8l-0.5-1.5l-2.4-2.9l-0.5-1.5l-3.4-5.2l-3.4,0.2l-4-2.4l-1.3-1.3   l-0.3-1.8l0.8-1.9l2.3-1l-0.3-2.1l6.1-2.6l9.1-4.5l7.3-0.8l16.5-0.5l2.3,1.9l1.6,3.2l4.4-0.5l12.6-1.5l2.9,0.8l12.6,7.6l10.1,8.1   l-5.4,5.5l-2.6,6.1l-0.5,6.3l-1.6,0.8l-1.1,2.7l-2.4,0.6l-2.1,3.6l-2.7,2.7l-2.3,3.4l-1.6,0.8l-3.6,3.4l-2.9,0.2l1,3.2l-5,5.5   L935.2,512.9z"/>

</svg>
