<svg xmlns="http://www.w3.org/2000/svg" x="0" y="0" width="300" height="300"
     viewBox="500 200 140 140">
    <path id="SD"
          fill="#D3D3D3" d="M646.8,303.2l-1-1.1l-1.5-3.6l1.8-3.7l1.1-5.6l-2.6-2.1l-0.3-2.7l0.6-3l2.2-0.8l0.3-5.7l-0.1-30.1   l-0.6-3l-4.1-3.6l-1-2v-1.9l1.9-1.3l1.5-1.9l0.2-2.7l-57.4-1.6l-56.2-3.9l-0.8,5.3l-1.6,15.9l-1.3,17.9l-1.6,24.6l16,1l19.6,1.1   l18,1.3l23.8,1.3l10.7-0.8l2.9,2.3l4.3,3l1,0.8l3.5-0.9l4-0.3l2.7-0.1l3.1,1.2l4.5,1.4l3.1,1.8l0.6,1.9l0.9,1.9l0.7-0.5   L646.8,303.2z"/>
</svg>
